<?xml version="1.0" encoding="utf-8"?>
<!-- Generator: Adobe Illustrator 21.0.2, SVG Export Plug-In . SVG Version: 6.00 Build 0)  -->
<svg version="1.1" id="Layer_1" xmlns="http://www.w3.org/2000/svg" xmlns:xlink="http://www.w3.org/1999/xlink" x="0px" y="0px"
	 viewBox="0 0 242.6 153" style="enable-background:new 0 0 242.6 153;" xml:space="preserve">
<style type="text/css">
	.st0{fill:#FFFFFF;}
	.st1{fill:#B81D24;}
</style>
<path class="st0" d="M242.6,8.2v136.6c0,4.5-3.7,8.2-8.2,8.2H8.2c-4.5,0-8.2-3.7-8.2-8.2V8.2C0,3.7,3.7,0,8.2,0h226.2
	C238.9,0,242.6,3.7,242.6,8.2z"/>
<path class="st1" d="M171.4,93.2c1.9,0.2,3.9,0.4,5.9,0.6l4.3-10.8l4.1,11.7c2.2,0.2,4.2,0.6,6.3,0.8l-7.2-20.6l7.2-17.8h-6.1
	l-0.1,0.1l-3.9,9.7l-3.5-9.7h-6.1l6.2,17.7L171.4,93.2L171.4,93.2z M166.8,92.9V57.4h-6.1v35C162.8,92.5,164.7,92.6,166.8,92.9
	L166.8,92.9z M121.5,90.8c1.7,0,3.2,0,4.9,0v-13h7.3v-5.5h-7.3V63h8.4v-5.6h-14.5v33.5C120.6,90.8,121,90.8,121.5,90.8L121.5,90.8z
	 M102.7,91.2c2-0.1,4.1-0.1,6.1-0.2V62.9h5.6v-5.6H97.1v5.6h5.6V91.2L102.7,91.2z M56.5,94.9V73.8l7.2,20.3c2.2-0.2,4.4-0.5,6.6-0.7
	v-36h-5.7v21.9l-7.8-21.9h-6.1v38.4l0,0C52.6,95.4,54.5,95.1,56.5,94.9L56.5,94.9z M91.2,62.9v-5.6H76.8v35.4
	c4.8-0.4,9.6-0.7,14.5-1.1v-5.6c-2.7,0.1-5.6,0.4-8.4,0.6v-8.8h7.3v-5.4h-7.3V63h8.4V62.9z M146.7,85.9V57.4h-6.1v33.8
	c4.8,0.1,9.7,0.5,14.5,0.7v-5.6C152.2,86.2,149.4,86.1,146.7,85.9L146.7,85.9z"/>
<path class="st1" d="M35.3,153H8.2c-4.5,0-8.2-3.7-8.2-8.2V54.1L35.3,153z"/>
<path class="st1" d="M242.6,8.2v85.9L209,0h25.4C238.9,0,242.6,3.7,242.6,8.2z"/>
</svg>
